<svg width="32" height="32" viewBox="0 0 32 32" fill="none" xmlns="http://www.w3.org/2000/svg">
<path fill-rule="evenodd" clip-rule="evenodd" d="M7 2H21C21.2652 2 21.5196 2.10536 21.7071 2.29289L27.7071 8.29289C27.8946 8.48043 28 8.73478 28 9V27C28 28.6569 26.6569 30 25 30H7C5.34315 30 4 28.6569 4 27V5C4 3.34315 5.34315 2 7 2ZM26 9.415L20.585 4H7C6.44772 4 6 4.44772 6 5V27C6 27.5523 6.44772 28 7 28H25C25.5523 28 26 27.5523 26 27V9.415Z" fill="#BBBBBB"/>
<path d="M21 2C21.5128 2 21.9355 2.38604 21.9933 2.88338L22 3V8H27C27.5128 8 27.9355 8.38604 27.9933 8.88338L28 9C28 9.51284 27.614 9.93551 27.1166 9.99327L27 10H21C20.4872 10 20.0645 9.61396 20.0067 9.11662L20 9V3C20 2.44772 20.4477 2 21 2Z" fill="#BBBBBB"/>
<rect x="10" y="13" width="12" height="2" fill="#BBBBBB"/>
<rect x="10" y="17" width="8" height="2" fill="#BBBBBB"/>
</svg>
