<?xml version="1.0" encoding="UTF-8"?>
<!DOCTYPE svg PUBLIC "-//W3C//DTD SVG 1.1//EN" "http://www.w3.org/Graphics/SVG/1.1/DTD/svg11.dtd">
<!-- Creator: CorelDRAW 2020 (64-Bit) -->
<svg xmlns="http://www.w3.org/2000/svg" xml:space="preserve" width="1.75388in" height="1.3736in" version="1.1" style="shape-rendering:geometricPrecision; text-rendering:geometricPrecision; image-rendering:optimizeQuality; fill-rule:evenodd; clip-rule:evenodd"
viewBox="0 0 857.27 671.4"
 xmlns:xlink="http://www.w3.org/1999/xlink"
 xmlns:xodm="http://www.corel.com/coreldraw/odm/2003">
 <defs>
  <style type="text/css">
   <![CDATA[
    .fil1 {fill:#FFED00}
    .fil0 {fill:#1B4E9B}
    .fil2 {fill:#2B2A29;fill-rule:nonzero}
   ]]>
  </style>
 </defs>
 <g id="Слой_x0020_1">
  <metadata id="CorelCorpID_0Corel-Layer"/>
  <g id="_1654226282432">
   <g>
    <polygon class="fil0" points="-0,557.23 857.27,557.23 857.27,0 -0,0 "/>
    <polygon class="fil1" points="407.93,126.53 428.72,111.71 449.56,126.53 441.64,102.61 462.78,87.8 436.73,87.8 428.72,63.56 420.77,87.82 394.74,87.8 415.85,102.61 "/>
    <polygon class="fil1" points="313.76,151.19 334.61,136.37 355.42,151.19 347.49,127.27 368.61,112.43 342.56,112.43 334.59,88.17 326.6,112.46 300.56,112.43 321.66,127.27 "/>
    <polygon class="fil1" points="265.71,155.48 257.72,179.73 231.66,179.73 252.8,194.54 244.88,218.48 265.71,203.65 286.52,218.48 278.57,194.54 299.74,179.73 273.68,179.73 "/>
    <polygon class="fil1" points="240.42,295.28 261.19,310.13 253.3,286.16 274.44,271.37 248.36,271.37 240.42,247.12 232.44,271.41 206.37,271.37 227.53,286.16 219.59,310.13 "/>
    <polygon class="fil1" points="273.68,363.3 265.71,339.01 257.72,363.32 231.66,363.3 252.8,378.09 244.88,402.04 265.71,387.2 286.52,402.04 278.59,378.09 299.74,363.3 "/>
    <polygon class="fil1" points="342.69,430.55 334.7,406.32 326.75,430.57 300.68,430.55 321.82,445.34 313.92,469.27 334.72,454.49 355.53,469.27 347.63,445.34 368.72,430.55 "/>
    <polygon class="fil1" points="436.73,454.92 428.76,430.67 420.77,454.92 394.74,454.92 415.85,469.72 407.98,493.66 428.76,478.86 449.56,493.66 441.66,469.72 462.78,454.92 "/>
    <polygon class="fil1" points="530.76,430.55 522.82,406.32 514.83,430.57 488.8,430.55 509.91,445.34 502.01,469.27 522.82,454.49 543.64,469.27 535.71,445.34 556.85,430.55 "/>
    <polygon class="fil1" points="599.85,363.3 591.86,339.01 583.87,363.32 557.83,363.3 578.97,378.09 571.05,402.04 591.86,387.2 612.66,402.04 604.76,378.09 625.88,363.3 "/>
    <polygon class="fil1" points="650.88,271.11 624.82,271.11 616.81,246.86 608.87,271.13 582.81,271.11 603.97,285.9 596.03,309.84 616.81,295 637.66,309.84 629.74,285.9 "/>
    <polygon class="fil1" points="571.03,218.17 591.84,203.38 612.66,218.17 604.74,194.23 625.88,179.48 599.82,179.48 591.84,155.22 583.87,179.5 557.83,179.48 578.95,194.23 "/>
    <polygon class="fil1" points="523.09,88.23 515.13,112.48 489.07,112.43 510.18,127.27 502.29,151.21 523.11,136.36 543.87,151.21 535.99,127.27 557.11,112.43 531.04,112.43 "/>
   </g>
   <path class="fil2" d="M49 666.32l0 -27.75 -25.24 -37.74 10.42 0 12.95 19.81c2.41,3.68 4.65,7.35 6.69,11.02 2,-3.43 4.42,-7.27 7.24,-11.54l12.68 -19.3 10.11 0 -26.16 37.74 0 27.75 -8.69 0zm42.73 0l0 -65.49 47.29 0 0 7.68 -38.6 0 0 20.12 36.13 0 0 7.68 -36.13 0 0 22.32 40.16 0 0 7.69 -48.84 0zm79.49 0l-25.31 -65.49 9.39 0 17.01 47.59c1.36,3.81 2.52,7.38 3.43,10.72 1,-3.58 2.18,-7.15 3.52,-10.72l17.65 -47.59 8.84 0 -25.53 65.49 -9.01 0zm42.53 0l0 -65.49 29.03 0c5.84,0 10.28,0.59 13.31,1.77 3.03,1.17 5.45,3.25 7.27,6.22 1.81,2.97 2.72,6.27 2.72,9.86 0,4.65 -1.51,8.57 -4.51,11.76 -3,3.19 -7.64,5.2 -13.92,6.07 2.3,1.1 4.04,2.2 5.23,3.26 2.53,2.32 4.92,5.23 7.16,8.72l11.33 17.83 -10.82 0 -8.66 -13.63c-2.52,-3.95 -4.6,-6.95 -6.23,-9.04 -1.65,-2.09 -3.11,-3.54 -4.4,-4.38 -1.28,-0.82 -2.61,-1.4 -3.95,-1.74 -0.97,-0.2 -2.57,-0.31 -4.82,-0.31l-10.03 0 0 29.09 -8.69 0zm8.69 -36.59l18.6 0c3.96,0 7.04,-0.41 9.27,-1.24 2.23,-0.81 3.92,-2.11 5.06,-3.93 1.16,-1.8 1.74,-3.75 1.74,-5.87 0,-3.09 -1.11,-5.65 -3.35,-7.65 -2.24,-2 -5.78,-2.99 -10.61,-2.99l-20.7 0 0 21.68zm54.53 4.71c0,-10.86 2.93,-19.36 8.77,-25.5 5.84,-6.15 13.37,-9.21 22.61,-9.21 6.05,0 11.5,1.45 16.36,4.33 4.85,2.88 8.55,6.91 11.1,12.08 2.55,5.15 3.82,11.01 3.82,17.54 0,6.63 -1.34,12.58 -4.02,17.81 -2.68,5.24 -6.48,9.21 -11.39,11.89 -4.92,2.7 -10.23,4.04 -15.92,4.04 -6.17,0 -11.68,-1.49 -16.54,-4.47 -4.85,-2.97 -8.53,-7.03 -11.04,-12.18 -2.5,-5.14 -3.75,-10.58 -3.75,-16.33zm8.97 0.15c0,7.88 2.12,14.08 6.36,18.61 4.24,4.53 9.56,6.8 15.96,6.8 6.53,0 11.87,-2.28 16.1,-6.86 4.2,-4.57 6.31,-11.07 6.31,-19.48 0,-5.32 -0.9,-9.97 -2.7,-13.93 -1.8,-3.96 -4.44,-7.05 -7.89,-9.22 -3.48,-2.18 -7.37,-3.28 -11.68,-3.28 -6.13,0 -11.4,2.1 -15.82,6.31 -4.42,4.21 -6.63,11.22 -6.63,21.05zm64.84 31.72l0 -65.49 24.73 0c4.35,0 7.67,0.21 9.97,0.62 3.22,0.53 5.91,1.55 8.09,3.05 2.18,1.51 3.93,3.62 5.26,6.31 1.33,2.7 1.98,5.67 1.98,8.92 0,5.55 -1.77,10.26 -5.32,14.1 -3.54,3.86 -9.95,5.78 -19.22,5.78l-16.8 0 0 26.71 -8.69 0zm8.69 -34.39l16.92 0c5.61,0 9.58,-1.04 11.94,-3.13 2.34,-2.09 3.52,-5.01 3.52,-8.81 0,-2.73 -0.69,-5.08 -2.07,-7.03 -1.39,-1.95 -3.22,-3.25 -5.47,-3.88 -1.47,-0.38 -4.16,-0.58 -8.08,-0.58l-16.76 0 0 23.42zm38.36 34.39l25.12 -65.49 9.53 0 26.66 65.49 -9.86 0 -7.57 -19.85 -27.58 0 -7.11 19.85 -9.19 0zm18.84 -26.89l22.32 0 -6.83 -18.16c-2.06,-5.52 -3.61,-10.07 -4.7,-13.67 -0.9,4.27 -2.1,8.46 -3.61,12.61l-7.18 19.22zm71.18 26.89l0 -65.49 8.69 0 0 65.49 -8.69 0zm40.6 0l0 -57.81 -21.59 0 0 -7.68 51.87 0 0 7.68 -21.59 0 0 57.81 -8.69 0zm55.87 0l0 -57.81 -21.59 0 0 -7.68 51.87 0 0 7.68 -21.59 0 0 57.81 -8.69 0zm40.69 0l0 -65.49 8.69 0 0 65.49 -8.69 0zm24.41 0l0 -65.49 44.18 0 0 7.68 -35.49 0 0 20.4 30.73 0 0 7.69 -30.73 0 0 29.73 -8.69 0zm52.76 -31.88c0,-10.86 2.93,-19.36 8.77,-25.5 5.84,-6.15 13.37,-9.21 22.61,-9.21 6.05,0 11.5,1.45 16.36,4.33 4.85,2.88 8.55,6.91 11.1,12.08 2.54,5.15 3.82,11.01 3.82,17.54 0,6.63 -1.34,12.58 -4.02,17.81 -2.68,5.24 -6.48,9.21 -11.38,11.89 -4.92,2.7 -10.23,4.04 -15.92,4.04 -6.17,0 -11.68,-1.49 -16.54,-4.47 -4.85,-2.97 -8.53,-7.03 -11.04,-12.18 -2.5,-5.14 -3.75,-10.58 -3.75,-16.33zm8.96 0.15c0,7.88 2.12,14.08 6.36,18.61 4.24,4.53 9.56,6.8 15.96,6.8 6.53,0 11.88,-2.28 16.1,-6.86 4.21,-4.57 6.31,-11.07 6.31,-19.48 0,-5.32 -0.9,-9.97 -2.7,-13.93 -1.8,-3.96 -4.44,-7.05 -7.89,-9.22 -3.48,-2.18 -7.37,-3.28 -11.68,-3.28 -6.13,0 -11.4,2.1 -15.83,6.31 -4.42,4.21 -6.63,11.22 -6.63,21.05zm114.4 24.7c4.04,2.77 7.76,4.79 11.18,6.07l-2.58 6.04c-4.71,-1.69 -9.41,-4.36 -14.08,-8.02 -4.85,2.7 -10.2,4.04 -16.05,4.04 -5.91,0 -11.28,-1.43 -16.1,-4.28 -4.82,-2.85 -8.52,-6.87 -11.13,-12.04 -2.61,-5.18 -3.9,-11.01 -3.9,-17.5 0,-6.45 1.31,-12.32 3.93,-17.62 2.61,-5.29 6.34,-9.32 11.17,-12.09 4.83,-2.76 10.24,-4.15 16.22,-4.15 6.04,0 11.48,1.43 16.33,4.3 4.85,2.88 8.55,6.89 11.1,12.06 2.54,5.15 3.81,10.98 3.81,17.46 0,5.4 -0.82,10.23 -2.47,14.53 -1.63,4.3 -4.12,8.03 -7.43,11.22zm-19.02 -11.07c4.99,1.4 9.1,3.49 12.33,6.25 5.08,-4.64 7.62,-11.6 7.62,-20.9 0,-5.29 -0.9,-9.91 -2.7,-13.86 -1.8,-3.96 -4.42,-7.03 -7.88,-9.21 -3.46,-2.18 -7.35,-3.28 -11.64,-3.28 -6.45,0 -11.8,2.21 -16.04,6.61 -4.25,4.42 -6.37,11.01 -6.37,19.77 0,8.49 2.1,15.02 6.3,19.57 4.21,4.55 9.57,6.81 16.11,6.81 3.08,0 5.99,-0.58 8.73,-1.74 -2.72,-1.75 -5.57,-3 -8.55,-3.75l2.09 -6.29zm42.07 18.09l0 -65.49 8.69 0 0 65.49 -8.69 0z"/>
  </g>
 </g>
</svg>
