<?xml version="1.0" encoding="UTF-8"?>
<!DOCTYPE svg PUBLIC "-//W3C//DTD SVG 1.1//EN" "http://www.w3.org/Graphics/SVG/1.1/DTD/svg11.dtd">
<!-- Creator: CorelDRAW 2020 (64-Bit) -->
<svg xmlns="http://www.w3.org/2000/svg" xml:space="preserve" width="2.51723in" height="5.10858in" version="1.1" style="shape-rendering:geometricPrecision; text-rendering:geometricPrecision; image-rendering:optimizeQuality; fill-rule:evenodd; clip-rule:evenodd"
viewBox="0 0 523.47 1062.36"
 xmlns:xlink="http://www.w3.org/1999/xlink"
 xmlns:xodm="http://www.corel.com/coreldraw/odm/2003">
 <defs>
  <style type="text/css">
   <![CDATA[
    .fil1 {fill:#FEFEFE}
    .fil0 {fill:#1F64AB}
   ]]>
  </style>
 </defs>
 <g id="Слой_x0020_1">
  <metadata id="CorelCorpID_0Corel-Layer"/>
  <path class="fil0" d="M253.92 792.89l-253.66 0 0 -253.66 253.66 0 0 253.66zm-0.26 269.47l-253.66 0 0 -253.66 253.66 0 0 253.66zm269.54 -0.26l-253.66 0 0 -253.66 253.66 0 0 253.66zm0 -269.21l-253.66 0 0 -253.66 253.66 0 0 253.66zm-522.94 -792.89l0 523.31 523.21 0 0 -523.31 -523.21 0z"/>
  <path class="fil1" d="M64.58 580.79l0 99.78c0,52.79 26.14,72.36 60.83,72.36 36.66,0 64.08,-21.13 64.08,-73.11l0 -99.04 -22.12 0 0 100.52c0,37.21 -16.34,53.82 -41.2,53.82 -22.64,0 -39.46,-16.13 -39.46,-53.82l0 -100.52 -22.14 0zm288.89 169.99l0 -72.4c0,-28.15 -0.25,-48.47 -1.54,-69.84l0.77 -0.24c8.32,18.31 19.62,37.67 31.41,56.54l53.78 85.94 22.12 0 0 -169.39 -20.6 0 0 71.12c0,26.14 0.49,46.75 2.5,69.37l-0.77 0.23c-7.8,-17.59 -17.8,-35.19 -30.14,-55.02l-54.03 -85.69 -24.15 0 0 169.39 20.65 0zm100.81 147.57c0,15.31 -4.5,27.37 -13.31,36.2 -11.55,12.26 -30.4,18.58 -51.74,18.58 -6.55,0 -12.56,-0.24 -17.6,-1.5l0 67.85 -21.88 0 0 -167.1c10.57,-2.02 24.39,-3.54 41.97,-3.54 21.64,0 37.45,5.03 47.51,14.06 9.29,8.04 15.06,20.34 15.06,35.45zm-22.09 2.28c0,-22.64 -15.84,-33.43 -39.98,-33.43 -9.53,0 -16.82,1.01 -20.58,1.77l0 65.82c4.75,1.26 11.05,1.75 18.08,1.75 26.64,0 42.48,-13.05 42.48,-35.91zm-229.72 29.91c0,27.63 -8.8,50.27 -24.36,65.84 -16.1,15.85 -42.23,24.37 -75.15,24.37 -15.83,0 -28.65,-0.48 -39.97,-1.98l0 -166.62c13.59,-2.04 29.41,-3.54 46.75,-3.54 31.42,0 53.77,7.05 68.64,20.86 15.29,13.84 24.09,33.69 24.09,61.07zm-23.1 0.75c0.25,-40.45 -22.39,-65.32 -68.61,-65.32 -11.29,0 -19.83,0.98 -25.62,2.25l0 133.94c5.49,1.01 13.53,1.01 22.1,1.01 46.74,0.25 72.13,-26.13 72.13,-71.87zm215.85 -558.46c-11.99,3.22 -24.82,4.26 -36.47,8.23 19.74,-16.95 18.63,-43.17 31.81,-63.12 4.19,-5.65 7.67,-11.58 12.55,-16.95 -8.01,16.11 -4.54,36.97 -13.73,52.59 -3.56,6.21 -8.65,12.21 -14.24,17.09 1.83,-0.07 3.43,-1.67 5.02,-2.71 14.99,-14.94 34.53,-19.12 50.71,-31.25 6.49,-5.16 12.41,-11.92 15.28,-19.25 -3.08,24.76 -27.7,47.99 -50.93,55.38zm53.93 -100.3c-7.33,10.39 -16.2,20.09 -22.96,30.69 0.76,-8.37 1.75,-18.69 -1.53,-26.64 -5.65,-17.09 -10.6,-34.46 -12.2,-53.22l0.21 -7.18c4.25,19.18 23.09,32.37 21.9,53.85 0.42,5.22 -1.19,9.62 -2.16,14.22l0.34 0.35 0.84 -0.97c2.79,-10.53 4.19,-21.62 8.51,-31.46 6.21,-14.16 13.87,-28.46 10.74,-45.55 9.41,20.16 6.56,47.08 -3.69,65.91zm-11.59 -108.6c12.35,16.74 15.06,43.39 6.06,62.57 -3.34,8.16 -5.71,16.81 -7.04,25.81 -0.62,-1.53 -0.76,-3.63 -1.32,-5.37 -4.89,-18.76 -22.68,-32.15 -30,-49.88 -2.3,-5.79 -4.25,-11.78 -5.37,-18.07 7.82,14.44 27.06,21.91 32.3,37.81 2.16,4.04 2.01,9.06 3.34,13.39 0.29,0 0.56,-0.21 0.56,-0.49 -2.3,-16.39 -1.6,-33.55 0.62,-49.73 -0.14,-8.79 -0.97,-17.3 -5.86,-24.07 3.15,1.82 4.54,5.3 6.7,8.02zm-8.71 -3.2c3.28,14.65 -1.47,28.95 1.52,43.73l-0.14 0.14c-7.96,-15.69 -24.9,-23.09 -36.55,-35.64 -6.76,-7.46 -9.69,-16.53 -11.37,-26.15 6.7,16.11 24.69,19.66 35.02,33.19 3.49,3.14 4.61,7.47 6.83,11.03l0.34 -0.35c-5.93,-12.69 -7.94,-26.99 -12.06,-40.52 -2.1,-5.86 -6.21,-11.65 -11.72,-15.34 13.53,2.79 25.32,16.95 28.12,29.92zm-36.28 -33.62c10.25,9.14 14.86,20.99 17.85,33.27l1.68 3.91c-14.86,-10.67 -28.32,-25.04 -37.81,-40.18l-11.58 -11.72c10.19,4.32 21.14,6.9 29.85,14.72zm-234.36 -12.76c-10.26,8.99 -17.37,20.37 -24.98,30.97 -6.83,8.44 -15.55,14.02 -23.29,21.28 4.18,-8.66 4.32,-18.98 10.25,-26.93 8.44,-14.72 24.06,-19.88 38.01,-25.32zm-56.08 31.31c4.96,-6.2 11.3,-10.53 18.42,-12.34 -13.81,9.49 -12.9,26.5 -17.3,40.66 -1.4,5.23 -3.83,10.05 -5.03,15.42l0.36 0.28c2.29,-6.07 6.34,-11.79 11.37,-16.74 9.83,-9.07 24.34,-14.72 29.15,-28.11 -0.21,18.63 -15.76,33.28 -30.62,43.74 -6.13,5.37 -12.06,11.51 -15.41,18.42 -0.35,-4.68 0.7,-9.42 0.34,-14.44 -1.61,-16.25 -2.79,-34.81 8.72,-46.88zm-27.96 55.6c-0.42,-16.46 6.42,-29.93 16.04,-42.2 0.29,-0.14 0.5,-0.42 0.84,-0.35 -10.6,16.12 -1.81,36.41 -2.31,54.76l-1.4 18.77c0.21,0.14 0.21,0.7 0.7,0.48 0.63,-2.09 0.78,-4.33 1.2,-6.49 2.5,-15.13 15.63,-25.87 27.13,-36.34 2.44,-2.72 4.6,-5.51 5.86,-8.71 -0.91,7.53 -3.28,15.14 -6.41,22.1 -8.93,17.44 -25.46,31.74 -28.47,51.69 -1.47,-19.11 -14.5,-33.41 -13.17,-53.7zm-8.02 23.43c1.18,-5.16 2.09,-10.46 4.33,-15.21 -4.26,21.76 10.39,37.46 15.21,56.36 2.02,7.05 2.51,14.65 5.37,21.27 0.28,0.14 0.49,-0.13 0.69,-0.35 -7.18,-20.09 3.15,-38.71 13.53,-54.41 2.52,-4.25 3.98,-9 5.24,-13.88 1.11,9.07 -1.18,19.53 -2.51,28.95 -2.52,12 -6.28,23.36 -9.56,35.01 -2.16,7.26 -1.6,15.48 -0.49,23.09l-1.04 -0.84c-7.61,-14.02 -22.68,-24.97 -27.13,-40.32 -3.69,-12.21 -6.14,-26.36 -3.63,-39.69zm-0.7 42.55c1.68,23.08 26.5,35.29 38.01,54.4 2.73,3.91 5.09,8.23 8.72,11.5 -0.56,-2.44 -2.86,-4.53 -3.7,-7.05 -4.04,-8.01 -5.5,-17.57 -4.52,-27.27 1.12,-11.79 6.06,-22.74 4.18,-35.15 10.12,21.82 7.05,49.03 12.7,72.67 1.46,5.16 4.46,9.76 6.42,14.72 -20.78,-14.16 -49.11,-27.62 -58.32,-53.56 -3.91,-8.93 -4.33,-20.02 -3.49,-30.27zm12.41 53c11.58,26.22 40.59,28.39 60.06,44.37 3.55,3.14 7.31,5.86 11.36,7.74l0.21 -0.21c-4.47,-4.05 -9.63,-8.65 -12.77,-13.88 -11.37,-15.83 -7.38,-38.02 -15.9,-55.03 7.75,9.28 14.78,18.9 19.46,29.43 6.98,17.17 9.63,36.56 25.74,49.53 -17.44,-5.72 -37.87,-4.12 -53.22,-14.86 -16.81,-10.32 -31.81,-27.82 -34.94,-47.08zm29.78 48.9c18.55,21.12 48.9,14.08 73.66,19.59 3.48,0.49 6.7,1.88 10.4,1.33 -2.94,-1.88 -7.05,-1.67 -10.25,-3.35 -19.4,-6.83 -22.26,-27.83 -32.79,-41.98 13.46,8.93 24.77,20.99 37.18,32.64 8.93,7.81 19.67,11.44 30.97,13.74 -2.72,0.98 -6.28,0.7 -9.2,1.47 -20.3,5.02 -42.9,13.19 -64.46,5.86 -14.02,-4.4 -28.46,-15.49 -35.5,-29.29zm252.09 49.24c-20.93,7.82 -42.76,-0.35 -59.09,-12.76 -6.63,-4.19 -12.48,-10.25 -21.05,-9.7 -3.08,-0.07 -6.08,0.07 -8.73,0.83 15.9,7.4 30.63,17.58 44.15,30.62 -2.29,2.59 -5.22,5.03 -8.02,7.25 -12.98,-14.01 -27.41,-27.48 -43.53,-35.36 -3.14,0.41 -6.14,2.3 -8.99,3.84 -13.11,8.3 -26.09,18.97 -35.85,32.01l-8.38 -6.91c13.4,-13.53 28.19,-24.06 44.37,-31.59 -15.9,-5.03 -26.3,8.3 -38.37,15.07 -14.09,9.83 -34.31,14.44 -51.33,7.67 -9.15,-3.49 -18,-8.59 -24.63,-16.88 13.4,9.2 33.35,10.18 48.55,4.18 20.44,-8.86 41.64,-20.09 66.26,-14.72 3.84,0.07 7.6,3.91 11.22,0.63 18.27,-4.75 38.99,-1.47 54.75,6.9l16.25 6.49c15.07,5.58 34.59,4.05 47.5,-5.16 -6.63,8.3 -15.69,14.23 -25.11,17.58zm22.45 -21.62c-23.5,8.86 -47.15,-2.02 -69.67,-5.65l-4.33 -0.56 0 -0.14c10.75,-2.44 21.21,-5.65 29.79,-13.39 12.63,-12.13 23.85,-24.62 37.87,-34.18 -10.39,13.33 -11.5,32.3 -28.66,40.87 -4.26,2.79 -9.63,3.28 -14.02,5.38 6.28,0.14 11.99,-2.1 18.2,-2.72 23.02,-3.62 49.39,0.08 65.5,-19.53 -5.99,13.67 -20.99,25.11 -34.67,29.92zm42.69 -66.12c-9.28,6.07 -18.7,11.72 -27.62,18.62l0 -0.83c13.68,-22.74 6.98,-53.91 15.42,-78.89l3.13 -8.37c-1.74,15.56 5.03,28.74 4.54,44.36 -0.49,9.42 -3.56,17.79 -8.51,25.32l0.84 0c6.69,-8.78 11.92,-18.14 19.74,-26.51 12.13,-11.71 24.48,-23.71 26.09,-39.97 4.1,27.13 -11.1,50.91 -33.63,66.26zm-37.18 -150.31c-22.88,-48.69 -73.1,-79.59 -125.69,-79.66 -23.01,0.42 -44.15,5.51 -63.47,15.07 -34.39,16.39 -62.5,52.03 -71.84,87.33 -15.42,59.43 5.44,119.62 56.42,154.56 36.68,26.3 95.14,31.33 136.3,11.16 36.55,-15.35 67.94,-53.08 77.49,-90.4 9.42,-31.59 5.29,-70.1 -9.21,-98.06zm6.56 49.24c0.34,2.37 -0.22,5.23 1.11,7.18l-20.09 0.35c-0.47,0.35 -1.03,0.63 -1.67,0.63l0.56 -0.84c-0.42,-15.76 -4.53,-29.92 -10.6,-43.32 -0.21,-6 -6.01,-10.04 -8.51,-15.27 -4.46,-3.07 -5.79,-8.51 -10.88,-11.23 -0.98,-1.05 -1.4,-2.79 -2.86,-3.14l2.37 -0.48c4.81,-4.96 10.04,-9.77 13.86,-14.93 20.8,23.44 34.06,50.01 36.71,81.05zm-56.79 75.47c-1.74,-1.67 -1.81,-4.95 -4.87,-4.88 -1.05,-0.14 -1.47,0.84 -1.47,1.67 -0.06,0.49 0.15,1.05 -0.21,1.4l-6.35 -5.58c3,-1.54 5.24,-5.58 7.54,-8.51 5.86,-8.16 9.28,-17.3 12.21,-26.64 0.97,0.77 2.23,0.84 3.2,0.21 0.91,-0.77 1.12,-2.23 0.5,-3.21l-2.31 -2.5c0.27,-4.19 1.4,-8.31 0.98,-12.56l1.53 0.49c6.49,-0.07 13.12,0.35 19.39,-0.28l-0.97 1.12c-1.6,25.18 -10.38,47.92 -27.97,66.48 0.77,-2.44 -1.54,-4.53 -1.19,-7.19zm-16.39 20.1c-3.63,-3.35 2.24,-6.15 3.35,-9.22 -0.63,-3.27 -4.25,-5.08 -7.04,-5.99 -1.33,-0.77 -0.91,-2.44 -0.98,-3.56 1.26,-1.26 2.52,-2.3 3.15,-3.98l0.49 1.33 8.58 8.85c0,2.03 0.35,3.77 2.3,4.67 0.98,0.42 2.04,-0.42 2.87,-0.14l-0.48 0c-3.71,4.05 -8.23,7.12 -12.42,10.39l-0.98 1.32c-0.48,-1.39 2.37,-2.03 1.18,-3.69zm-38.99 -108.12c-1.12,0.42 -2.31,1.18 -3.56,0.63 -1.19,-1.25 -2.72,-2.93 -4.68,-3.14 -1.33,0.35 -2.23,2.02 -3.83,1.12 2.5,-2.72 6.98,-3.21 8.86,-6.97 0.56,-1.81 1.05,-3.69 0.84,-5.58 -0.7,-0.84 -1.74,-1.6 -2.66,-0.84 -1.39,2.3 -4.59,2.79 -6.06,5.23l-5.02 -1.68c-0.84,-4.6 0.34,-10.46 -0.99,-14.44 2.65,0.97 5.59,1.04 8.38,1.68 7.12,1.81 13.6,5.16 19.88,9.06 -1.46,0.49 -3,2.24 -4.18,3.35 -0.07,1.25 1.33,0.91 1.88,1.68l1.33 -0.49c-2.15,5.44 -9.41,4.61 -10.18,10.4zm5.86 57.75c-0.14,2.51 -3.69,2.44 -5.37,4.18 -0.98,-0.35 -0.21,-1.33 0,-1.88 1.67,-1.33 2.93,-2.65 5.37,-2.3zm39.49 -66.82c2.3,0.49 3.69,3.21 6,3.7 2.09,3.21 2.85,6.91 3.9,10.53 -1.89,2.09 -2.02,6.77 -6.07,6 -0.98,-2.23 1.81,-3.55 1.18,-5.65 0.7,-0.56 1.82,-0.84 2.03,-1.89 -0.14,-2.09 -2.8,-1.67 -3.21,-3.84 -0.83,-1.19 -2.24,-1.05 -3.34,-1.46 -2.66,-1.26 -5.16,5.37 -5.87,0.14 0.84,-0.7 1.32,-1.75 0.7,-2.65 -2.31,-1.26 -2.51,-4.47 -5.03,-5.72 -3.42,0.07 -6.56,-1.47 -9.9,-0.7 -2.16,-0.49 -4.69,-1.96 -6.35,0.35 -0.14,1.74 -1.05,3.2 -1.32,4.88 -0.77,-0.42 -1.47,-1.19 -1.89,-2.03 6.14,-6.84 13.19,-13.74 19.61,-20.44l0.34 -0.84c3.22,3.97 6.98,7.96 9.35,12.42 0.56,2.65 -4.6,5.44 -0.13,7.18zm12.2 36.97c-1.19,3.77 -1.05,8.09 -2.02,11.93 -0.21,0.63 -0.21,1.4 -0.63,2.02 -1.19,-2.37 -2.17,-5.51 -4.88,-6.91 -2.3,-1.26 -0.84,-4.39 -3,-5.86l-2.16 -2.16c3.69,1.61 8.5,1.19 12.69,0.98zm-29.09 -59.22c-3.69,4.18 -8.44,7.95 -11.58,12.35l-0.49 -1.46c-9.14,-7.46 -19.74,-11.16 -31.33,-12.77l-1.81 0.35 0.14 -18.9 -0.7 -1.54c7.68,1.19 15.41,2.24 22.46,4.75 9.07,3.21 17.43,8.09 25.11,14.5l1.68 0.7 -3.5 2.03zm-19.11 103.3c6.13,0.56 11.93,1.89 17.44,3.98 1.41,0 2.94,-0.14 3.84,-1.18 -0.35,-2.3 2.44,-3.35 2.16,-5.66 1.19,-1.94 0.35,-4.67 2.01,-6.34 0.22,-2.45 -0.13,-5.16 -1.66,-7.04 -1.53,-0.98 -2.93,0.28 -4.4,0.49 -1.66,1.26 -1.04,4.95 -3.97,4.19 -0.7,0.97 -2.03,0.97 -3,0.69 -0.21,-0.35 -0.71,-0.42 -0.55,-0.83 2.09,-1.05 5.78,-0.35 6.07,-3.7 1.53,-1.33 3.91,-0.77 5.37,-2.37 1.05,-1.68 1.54,-3.15 3,-4.68 0.14,-0.7 0.42,-1.39 0.35,-2.16 0.42,0.98 0.42,2.3 1.68,2.86 1.6,0.48 2.3,-0.84 3,-1.89 -0.07,-0.56 0.34,-1.39 0.98,-0.84 1.74,1.39 4.19,0.2 6.21,0.35 1.73,-0.56 3.62,-0.9 5.5,-0.98 -1.67,7.68 -5.59,14.85 -10.19,21.55 -1.73,2.16 -3.27,4.47 -5.23,6.56 -0.62,-1.6 -0.55,-3.76 -1.95,-5.23l-0.84 0.21c-1.12,2.23 -3.35,4.11 -3.07,6.69 -1.67,2.64 -5.86,0.42 -8.37,1.81 -3,0.91 -4.61,-2.02 -6.98,-2.65 -2.65,-1.12 -5.72,-1.18 -8.22,-2.51 -0.08,-0.62 0.27,-1.12 0.83,-1.33zm-13.04 -179.81c27.9,3.84 52.95,14.92 74,35.01l-2.38 0.98c-3.83,4.11 -8.29,7.46 -10.53,12.21 -0.28,-1.33 -2.24,-2.23 -2.86,-3.49 -0.42,-3.83 -4.11,-7.46 -7.4,-9.41 -2.72,-0.49 -3.34,-4.61 -6.7,-3.35 -2.78,-2.37 -6.28,-0.63 -8.99,0.69l0 0.36c-13.25,-7.54 -28.05,-12.21 -44.03,-13.4 -0.76,0 -1.18,0.62 -2.01,0.49 0.82,-0.56 0.4,-2.23 0.33,-3.21 -0.42,-0.69 -1.25,-1.54 -2.22,-0.97 -0.36,0.49 -0.64,1.05 -0.64,1.67 0.43,-6.21 0.64,-13.74 -0.21,-19.25 4.25,1.33 9.14,0.91 13.61,1.68zm-5.37 27.97c12.2,1.46 23.01,4.81 33.83,9.7 1.6,2.44 4.74,3.62 5.16,6.7 -1.59,4.25 5.66,4.18 2.38,8.51 -0.22,1.4 0.97,2.16 1.45,3.21 0.42,1.18 -0.2,3 1.2,3.69 2.51,0.56 3.55,-2.79 6.06,-1.88 3.28,2.37 3.98,6.28 3.98,9.91 0.42,2.3 2.37,3.83 4.39,4.67 4.12,-1.25 2.17,3.35 5.03,4.54 3.21,0.42 4.82,4.53 8.37,4.18 3.15,2.37 4.89,5.86 7.68,8.51 -0.07,0.63 0.28,1.19 0.84,1.4 1.68,0.42 2.72,-0.76 4.17,-0.83 5.38,11.02 8.03,23.22 9.08,36.14l0.63 1.32c-6.76,-0.07 -13.53,0.07 -20.43,0.49 -0.21,-3.98 0.06,-8.16 -2.16,-11.37 1.11,-2.09 1.31,-4.81 1.18,-7.18 -0.42,-1.05 -1.34,-0.14 -1.81,0 -2.23,2.16 -2.52,5.16 -3.69,7.67 -1.9,2.72 -2.17,6.83 -1.05,9.9l0.84 0.84 -7.82 -0.14c1.88,-1.18 -1.6,-3.49 0.28,-5.37l3.55 -0.69c1.11,-2.58 3.91,-4.47 3.84,-7.53 1.53,-1.88 2.93,-4.32 1.81,-6.83 -1.67,-3.83 2.87,-7.74 -0.63,-11.37 0.35,-1.05 -0.42,-2.58 -1.68,-2.51 -1.12,-0.35 -2.37,0 -2.37,-1.53 0.63,-0.98 2.23,-1.96 1.87,-3.49 -0.83,-1.04 -2.15,-0.14 -3.2,-0.21 -0.28,-1.68 2.86,-3.49 0.14,-5.02 -1.88,-0.35 -2.93,2.02 -4.82,1.19 -0.83,-0.7 -1.46,-1.89 -0.69,-2.86l-4.19 -5.16c-0.42,-0.49 -1.61,0.28 -1.68,-0.7 0.28,-4.12 -4.73,-6.42 -5.02,-10.53 -1.53,-1.4 -0.28,-3.98 -2.31,-5.17 -1.12,-0.83 -2.37,-1.81 -3.9,-1.18 -1.75,-2.52 -3.77,-4.95 -6.15,-7.19 -0.69,-0.21 -1.18,0.21 -1.53,0.63 0.35,1.95 2.65,3.07 2.51,5.23 -0.35,-0.07 -0.63,0 -0.84,0.28 0.29,2.02 1.89,3.63 3.21,5.02 -10.95,-8.43 -23.85,-12.84 -37.52,-15.06 -2.66,-0.07 -5.38,-1.19 -8.03,-0.28 0.64,-6.07 0.21,-12.97 0.35,-19.46l-0.7 -1.32c2.59,1.4 5.38,0.77 8.38,1.19zm-11.72 80.35l1.18 0.63c-1.46,0.07 -3.13,-0.84 -4.38,0.21 -0.84,0.63 -0.28,1.74 0,2.51 2.5,0.97 3.06,5.09 6.41,3.49 1.4,0.28 3.13,0.55 3.62,2.16 2.01,0.76 2.3,4.32 5.03,3.56 -0.14,1.32 -0.56,3.63 1.04,4.67 -0.42,1.19 -1.96,1.68 -1.88,3.21 -0.36,0.42 -0.7,1.11 -0.28,1.67 2.57,0.28 2.44,3.2 3.62,4.81 -0.56,2.02 0.14,4.12 1.89,5.23 -0.28,2.38 -1.34,4.39 -2.37,6.49 -2.72,1.32 -7.19,-2.03 -8.17,2.86 -1.53,1.67 -0.21,5.37 -3.21,5.51 -5.71,0.42 -11.02,-0.83 -15.41,-4.19 2.86,-1.46 7.74,0.56 8.72,-3.69 0.77,-0.62 1.04,-1.74 0.7,-2.65 1.33,-1.33 1.81,-3.07 2.51,-4.67 -1.04,-1.04 -0.56,-1.61 -0.34,-2.86 -2.87,-2.93 -6.76,-1.4 -10.4,-1.32 -2.17,1.25 -0.07,3.63 -1.54,5.15 -2.79,0.35 -2.86,3.08 -4.81,4.67 -1.11,-0.49 -1.96,-2.02 -1.88,-3.14l0.36 0c-0.15,0.56 0.2,1.05 0.69,1.19 2.65,0.42 1.81,-2.58 2.65,-3.91 0.42,-1.67 4.32,-3.97 1.19,-5.16 -0.15,-0.7 0.41,-1.6 -0.49,-2.02 -0.98,0.42 -2.59,0.42 -2.72,1.88 0.49,1.25 0,2.51 -1.11,3.35l-0.56 0c0.21,-0.84 -0.42,-1.4 -0.98,-1.68 -1.6,0.07 -2.92,1.25 -4.54,0.84 -2.22,0.49 -4.74,0.91 -7.04,0.98 -0.28,-1.33 1.81,-0.91 2.23,-2.16 -0.35,-2.09 1.05,-3.35 1.96,-4.89 0.56,-0.56 1.6,-0.35 2.24,-0.14 0.55,0.56 1.12,1.04 1.95,0.83l0.69 -1.19c2.1,1.26 0.91,7.26 5.02,4.68 0.63,-2.58 0.08,-5.65 1.2,-8.02 -0.92,-2.23 1.46,-3.14 2.16,-4.67 2.15,0.21 1.95,-2.23 2.85,-3.35 3.27,-0.97 6.77,-1.74 8.86,-5.22 -0.84,-1.75 -0.28,-4.26 -1.66,-5.65 1.45,-0.49 3.89,-1.25 5.02,0zm-3.2 129.39l-1.96 -1.33c-25.94,-1.39 -48.13,-12 -67.51,-28.94 3.14,-0.35 4.32,3.83 7.74,2.79 3.77,-0.42 6.69,-3.42 10.67,-2.79 1.96,0.07 4.39,0 5.59,-1.88 0.62,-2.09 -1.6,-3.14 -2.03,-4.81 13.18,9.83 28.04,16.04 44.99,16.88l1.67 -0.7 0 18.42 0.84 2.37zm-73.1 -100.58l-1.05 -1.67c2.1,1.53 4.26,1.05 6.71,0.63 -3.42,1.12 -2.16,5.31 -3.49,7.89 -0.21,1.26 1.68,1.6 1.46,2.86 -1.67,0.83 -1.89,2.65 -2.65,3.97 0.97,-4.67 -0.85,-9.07 -0.98,-13.67zm-21.14 24.06c-1.88,0.22 -1.39,2.3 -2.17,3.35 0.15,-4.88 -2.01,-9.62 -2.65,-14.58l-1.52 -12.83 -0.84 -1.18c6.14,0.9 12.92,0.35 19.39,0.49l1.54 -0.7c-0.56,3.07 -0.7,7.53 1.54,10.25 -0.77,-0.84 -1.89,-3.28 -3.71,-3.21 -3.55,0.21 -3.83,4.88 -7.39,5.03 -2.93,2.44 -3.35,5.85 -3.98,9.2 1.25,1.33 -0.98,2.65 -0.21,4.19zm14.23 -32.29l-1.82 -0.7 -19.11 0.35c1.74,-21.34 7.61,-40.94 19.95,-57.89l7.53 -9.56 0.13 -1.33c4.47,5.24 9.43,10.11 14.72,14.72 -13.74,14.79 -20.71,32.51 -22.25,52.39 0.28,0.69 0.07,1.53 0.84,2.02zm79.17 -81.33c-3.62,-0.77 -7.32,0.49 -11.02,0.84 -15.56,3.2 -30,9.83 -41.86,21.21l-0.49 -1.33c-4.68,-4.33 -8.92,-9.77 -14.08,-13.04 4.46,-2.65 8.44,-6.56 12.76,-9.56 16.18,-10.88 34.31,-17.01 54.54,-18.21 -0.7,6.56 -0.13,13.46 0.14,20.09zm-31.25 105.25c0.07,0.7 0.9,1.33 1.67,0.84 0.77,-1.04 -1.67,-2.86 0.14,-3.49 1.12,1.26 0.56,3.35 1.19,4.81 0.56,0.77 0.76,1.67 0.63,2.72 -1.89,2.3 -4.54,4.33 -5.86,6.83 -1.26,-3.13 -4.05,-5.65 -5.3,-8.86 -2.02,-3.63 -3.06,-7.74 -5.02,-11.36 1.68,2.09 6.14,-0.28 6.14,3.69 0.27,0.21 0.69,0.14 1.03,0.14 0.56,-0.62 0.63,-0.7 1.33,-0.34 0.35,0.69 2.02,1.04 0.69,1.87 0.48,1.46 1.74,2.86 3.35,3.14zm20.71 54.41l3.35 1.53c-12.13,-3 -25.18,-7.18 -35.64,-15.91 -1.81,-1.04 -3,-3.42 -5.16,-3.55 4.88,-3.97 9.76,-9.21 13.87,-14.23 1.82,3.35 5.72,5.15 8.73,7.39 5.27,2.45 10.76,6.91 16.95,5.65 -1.92,0.7 -3.69,1.77 -5.23,3.42 -0.84,1.88 -0.56,4.66 -3.07,5.51 0.14,3.98 3.7,7.32 6.21,10.18zm-44.49 -24.62l-0.7 -4.33c-3.97,-3.55 -2.73,-9.7 -3.35,-14.23 -2.79,-2.23 -0.56,-5.86 -2.51,-8.37 0.06,-4.04 -6.29,-5.44 -4.33,-9.91 -0.77,-1.11 -1.74,-2.58 -0.84,-3.97 1.26,-1.47 3.97,0.14 4.81,-2.02l0.55 -3.7c1.47,-0.83 3.56,1.05 4.33,-0.97 1.4,-3.49 -5.15,-7.74 0.49,-9.56 1.89,-0.21 4.46,-0.63 5.23,1.68 0.42,2.65 1.12,5.51 0.13,8.23 1.82,0.7 0.15,2.3 0.15,3.49 -1.12,0.49 -2.17,1.6 -3.49,1.18 -0.55,-0.91 -1.54,-2.51 -2.87,-2.37 -1.04,1.46 0.42,3 0.22,4.67 -0.35,0.98 -0.07,2.09 -0.7,2.85 -0.48,-0.35 -0.97,-0.55 -1.67,-0.48 -1.19,0.62 -0.41,1.88 -0.13,2.65 1.24,0.77 2.15,1.96 3.62,2.03l0.7 -0.84c-0.15,-2.23 0.9,-3.98 0.97,-6.21l2.03 1.05c1.87,8.65 5.78,16.53 10.74,23.92l2.65 2.65c-6.35,5.51 -12.56,12.07 -17.93,18.28l0 0.13c-0.08,-0.28 -0.28,-1.4 -1.12,-0.97 -0.55,-2.66 3.84,-1.88 3.01,-4.88zm9.69 -82.52c-1.96,1.12 -3.49,3.07 -4.67,4.89 -1.67,1.05 -3.84,0.98 -5.23,2.86 0,0.76 0.9,1.74 -0.14,2.3 -1.61,1.54 -4.96,-0.42 -5.72,2.51 -0.29,2.58 -3.35,4.05 -3.14,6.91 -1.67,1.12 -1.39,3.28 -1.19,5.02 0.91,1.11 -0.41,3.14 1.19,3.98 -2.72,-0.35 -6.28,-0.77 -8.72,0.35 1.33,-3.14 0.91,-7.05 1.68,-10.4 2.58,-14.44 9.14,-27.13 18.76,-38.64 4.82,4.74 9.98,10.26 15.42,14.37 -3.97,0.14 -4.04,6 -8.23,5.86zm43.04 75.19c-0.98,1.6 -0.21,3.98 -0.7,5.86 -9.28,-1.6 -17.65,-5.44 -25.11,-11.58 4.19,-4.53 9.91,-8.99 12.91,-13.88 0.43,2.23 3.07,3.28 4.88,4.33 3.73,1.66 8.23,4.23 12.46,2.46 -0.35,0.26 -0.62,0.66 -0.94,0.89 1.19,1.19 -0.91,2.44 0.49,3.56 0.28,0.91 -0.91,0.77 -0.98,1.47 0.7,1.26 -0.21,3.49 1.81,3.9 0.5,0.69 0,1.75 -0.83,1.82 -1.4,-0.28 -3.28,-0.35 -3.98,1.19zm-22.47 -20.92c1.26,-1.26 2.45,-2.79 2.87,-4.54l2.37 1.19c-2.16,0.14 -3.35,2.3 -5.02,3.49l-0.22 -0.14zm19.47 -56.78c-0.42,-0.98 0.77,-2.03 -0.35,-2.65 -3.21,1.47 -2.02,5.03 -4.19,7.33 -0.35,1.81 -2.72,0.9 -3.84,1.88 -0.84,-1.32 -2.51,-1.25 -3.69,-0.49 -1.67,0 -1.95,-3.42 -3.7,-1.68 -0.49,0.56 -0.21,1.81 -1.52,1.32 -0.29,-0.48 -0.77,-0.56 -1.12,-0.83 -0.08,-1.05 1.74,-0.91 1.12,-2.16 -1.26,-2.24 -3.98,-1.89 -5.65,-3.56l-1.54 0c8.22,-8.72 18.55,-12.56 29.78,-14.02 -0.14,5.02 -0.55,10.67 1.04,15.21 -1.74,-2.16 -4.18,0.56 -6.34,-0.35zm5.51 -22.6c-3.63,-0.84 -7.05,0.84 -10.54,1.18 -7.8,1.96 -14.64,6.28 -21.26,11.02 -0.35,0.56 -0.7,1.05 -1.05,1.54 -4.82,-4.26 -9.55,-10.18 -14.86,-13.88 13.46,-11.09 28.81,-18.49 46.53,-19.74l1.18 -0.69c-0.76,6.76 -0.76,14.01 0,20.57zm-75.53 -49.38c22.1,-15.9 47,-25.46 75.05,-26.58l-0.56 1.95 0.21 16.74 0.63 1.68c-27.21,1.25 -50.92,11.44 -71.28,29.99l-0.35 0.97c-4.67,-5.02 -9.91,-10.81 -15.41,-14.85l-0.62 0c4.31,-2.51 8.08,-6.98 12.34,-9.9zm-51.9 90.4c3.55,-28.81 15.83,-54.06 35.71,-76.17l0.49 1.88c4.75,4.67 9.49,9.63 14.02,13.88 -3.91,2.65 -6.21,7.12 -9.34,10.67 -12.49,17.71 -19.6,37.52 -20.93,59.78l0.49 2.72c-6.98,-0.56 -14.58,-0.56 -21.56,0 0.84,-4.25 0.35,-8.58 1.12,-12.76zm16.11 81.54c-10.04,-18.63 -15.97,-38.92 -17.09,-61.24l19.39 0.14 1.89 -0.7c-0.29,1.04 -0.15,2.37 -0.21,3.91l-0.14 -0.21c-0.56,0.42 0.42,0.63 0.35,1.04 0.35,7.39 1.66,14.37 3.34,21.21l0.98 1.53c-1.47,-1.32 -2.03,-2.93 -3.14,-4.33 -1.6,0.28 -3.35,0.63 -4.53,1.68 0.77,2.02 -1.26,1.39 -2.16,1.95 -0.28,-0.48 -0.85,-1.04 -1.4,-1.32 -1.47,0.07 -3,0.22 -3.62,1.67 0.21,1.05 -0.98,1.53 -1.4,2.37 -0.43,3.14 -1.47,7.25 0.83,9.84 0.07,2.3 1.19,4.39 2.86,5.86 0.7,0.14 1.05,-0.42 1.54,-0.62 1.88,1.39 2.86,4.81 5.65,4.18 0.84,-0.42 0.56,-1.26 0.84,-1.88 1.47,1.46 2.16,4.46 4.87,4.18 0.7,0.69 1.05,1.95 2.17,2.02 2.93,-0.77 1.88,3.35 4.05,4.53 1.67,1.05 2.58,3.56 5.02,2.37l0.84 -1.04c0.78,0.56 0.14,1.95 0.84,2.72 1.19,2.23 3.56,3.84 5.86,4.46 2.02,2.3 4.12,5.02 6.49,6.7l-1.67 0.7 -13.89 14.36c-6.35,-8.58 -13.59,-16.89 -18.55,-26.08zm98.28 66.11c-28.04,-3.83 -52.59,-15.97 -74.35,-34.8l14.37 -14.44 0.21 -0.84c19.88,19.19 43.95,28.81 71.15,30.69l2.15 -0.56 -0.69 1.05 0 18.9 1.04 1.68c-4.32,-1.33 -9.41,-0.91 -13.88,-1.68zm16.88 -79.02c-1.54,0.2 -2.79,0.07 -4.05,-0.49 -0.63,-0.07 -0.42,-0.77 -0.63,-1.19 2.03,0.07 3.01,-2.37 5.17,-2.02 1.26,-1.12 1.47,-3.01 3.2,-3.63 -0.56,-1.81 1.69,-0.63 2.16,-1.68 0.64,-0.56 1.47,-1.18 2.37,-0.7 1.4,2.03 4.26,1.18 5.66,3.49 0.7,0.28 0.91,-0.49 0.84,-0.98l0 -0.84c2.23,-0.21 3.35,3 5.72,0.84 0.56,-0.49 0.42,-1.54 0,-2.02 -0.28,-0.14 -0.63,-0.28 -0.7,-0.63 1.6,-0.76 2.58,2.44 4.53,1.32 1.6,-1.32 2.72,-3 4.88,-3l0.49 0.63c0.35,4.19 -3.21,6.7 -6.35,8.58 -2.01,0.84 -5.71,0.56 -5.58,3.84 -2.29,2.09 -4.46,-1.25 -7.33,-0.35 -1.32,-0.69 -0.06,-2.65 -1.88,-3 -2.93,1.26 -6.42,-1.53 -8.51,1.82zm5.15 35.37c2.52,1.04 6.85,-1.05 8.23,1.81 -0.77,1.61 -2.02,3.14 -1.53,5.02 1.04,2.59 2.57,6 5.85,6.21 0.84,1.11 1.96,1.39 3.08,1.81 -5.59,0.9 -11.59,0.63 -16.74,2.37 0.7,-5.65 0,-11.5 0,-17.22l-1.05 -1.54c0.97,0.13 1.46,0.98 2.16,1.54zm0.23 44.63l-1.34 0.84c0.49,-7.12 0.49,-14.79 0,-21.9 3.49,1.19 7.18,-0.14 10.87,-0.14l10.68 -1.88c5.29,1.05 9.06,9.62 14.92,4.4 2.02,-2.44 5.59,-2.24 6.84,-5.59 3.42,-1.25 4.26,-4.74 6.7,-6.97 2.3,-6.56 9.7,-7.53 14.22,-12.07 3.29,-2.93 7.61,-5.36 9.56,-9.2l0.35 1.67 14.72 14.02c-24.91,22.6 -53.92,35.37 -87.53,36.83zm128.06 -127.85c-1.33,32.64 -13.48,60.83 -34.82,85.17l-0.56 1.05c-4.38,-4.82 -10.25,-11.1 -15.56,-15.28 3.21,-2.16 5.65,-5.93 8.23,-9 13.26,-18.21 21,-38.71 22.11,-61.94l-0.69 -1.89 1.19 0.84 19.88 -0.14 1.04 -0.49 -0.83 1.67zm-71.01 -109.5c-0.07,0.76 0.06,1.46 0.48,2.02 2.93,1.04 3.28,5.3 7.05,4.33 1.12,-1.26 -0.71,-2.59 -0.36,-4.19 -0.47,-1.46 -1.74,-2.1 -3.13,-2.52 -1.46,1.4 -2.71,-1.25 -4.04,0.36zm-55.74 -11.86c3.69,4.74 10.12,2.09 14.73,1.18 3.35,1.4 6.56,-0.28 9.07,-2.37l0 -0.5c-2.37,-3.34 -6.84,-3.84 -10.89,-4.18l-10.04 4.32c-0.83,-0.35 -2.43,-0.77 -3,0.36 -0.42,0.35 0,0.83 0.14,1.18z"/>
 </g>
</svg>
